<mxfile host="app.diagrams.net" modified="2024-07-14T18:05:08.517Z" agent="Mozilla/5.0 (Windows NT 10.0; Win64; x64) AppleWebKit/537.36 (KHTML, like Gecko) Chrome/126.0.0.0 Safari/537.36" version="24.6.5" etag="uIr8fLPVJDgLmgI0iDuN" type="github">
  <diagram name="Page-1" id="GC655MLlFyZ8t5NlishO">
    <mxGraphModel>
      <root>
        <mxCell id="0" />
        <mxCell id="1" parent="0" />
      </root>
    </mxGraphModel>
  </diagram>
</mxfile>
